<?xml version="1.0" encoding="UTF-8" standalone="no"?>
<!-- Created with Inkscape (http://www.inkscape.org/) -->

<svg
   version="1.1"
   id="svg1"
   width="1920"
   height="1080"
   viewBox="0 0 1920 1080"
   sodipodi:docname="grub1svg.svg"
   inkscape:version="1.4.2 (ebf0e940d0, 2025-05-08)"
   xml:space="preserve"
   inkscape:export-filename="../void1.png"
   inkscape:export-xdpi="96"
   inkscape:export-ydpi="96"
   xmlns:inkscape="http://www.inkscape.org/namespaces/inkscape"
   xmlns:sodipodi="http://sodipodi.sourceforge.net/DTD/sodipodi-0.dtd"
   xmlns:xlink="http://www.w3.org/1999/xlink"
   xmlns="http://www.w3.org/2000/svg"
   xmlns:svg="http://www.w3.org/2000/svg"><defs
     id="defs1" /><sodipodi:namedview
     id="namedview1"
     pagecolor="#ffffff"
     bordercolor="#000000"
     borderopacity="0.25"
     inkscape:showpageshadow="2"
     inkscape:pageopacity="0.0"
     inkscape:pagecheckerboard="0"
     inkscape:deskcolor="#d1d1d1"
     showguides="true"
     inkscape:zoom="0.47214109"
     inkscape:cx="908.6267"
     inkscape:cy="527.38473"
     inkscape:window-width="1900"
     inkscape:window-height="1034"
     inkscape:window-x="0"
     inkscape:window-y="0"
     inkscape:window-maximized="0"
     inkscape:current-layer="g1"><sodipodi:guide
       position="226.93652,880.80599"
       orientation="0,-1"
       id="guide5"
       inkscape:locked="false" /><sodipodi:guide
       position="213.10229,1066.9384"
       orientation="0,-1"
       id="guide7"
       inkscape:locked="false" /><inkscape:page
       x="0"
       y="0"
       width="1920"
       height="1080"
       id="page2"
       margin="0"
       bleed="0" /><sodipodi:guide
       position="892.94462,668.41848"
       orientation="1,0"
       id="guide1"
       inkscape:locked="false" /><sodipodi:guide
       position="221.33215,651.10278"
       orientation="0,-1"
       id="guide2"
       inkscape:locked="false" /><sodipodi:guide
       position="1052.4157,25.230541"
       orientation="0,-1"
       id="guide3"
       inkscape:locked="false" /><sodipodi:guide
       position="377.02664,663.68261"
       orientation="0,-1"
       id="guide4"
       inkscape:locked="false" /></sodipodi:namedview><g
     inkscape:groupmode="layer"
     inkscape:label="Image"
     id="g1"
     style="display:inline"><rect
       style="display:inline;opacity:1;fill:#f1f7eb;stroke-width:0.991078"
       id="rect1"
       width="1920.1414"
       height="1080.7251"
       x="-0.053701121"
       y="-0.031890053" /><path
       style="display:inline;opacity:0.390817;fill:#84a087;stroke-width:0.845898"
       d="m 1299.7541,1048.829 8.4597,-32.9061 21.4533,-4.81 -5.097,44.2528 z"
       id="path10-3" /><path
       style="display:none;opacity:1;fill:#84a092;fill-opacity:1"
       d="M -13.557083,236.28059 1437.0508,114.26684 1696.5721,211.10315 1987.081,-56.165058 1611.3561,-261.45803 -87.152676,-7.7469045 Z"
       id="path1" /><path
       style="opacity:1;fill:#84a092;fill-opacity:1"
       d="M -15.728774,265.93904 1645.9823,145.86202 1959.7319,4.4810199 1431.0057,-156.26725 -162.91996,2.5442939 Z"
       id="path2" /><circle
       style="display:inline;opacity:1;fill:#f1f7eb;fill-opacity:1;stroke-width:0.829114"
       id="path3"
       cx="358.11697"
       cy="108.87305"
       r="89.700424" /><path
       style="display:inline;opacity:0.390817;fill:#84a087;stroke-width:0.845898"
       d="m 960.90631,1049.2429 8.4597,-32.9061 21.4533,-4.81 -5.097,44.2528 z"
       id="path10" /><text
       xml:space="preserve"
       style="font-size:26.6667px;font-family:Carlito;-inkscape-font-specification:Carlito;text-align:start;writing-mode:lr-tb;direction:ltr;text-anchor:start;display:inline;opacity:1;fill:#ff0000;fill-opacity:1"
       x="322.67523"
       y="431.44998"
       id="text3"><tspan
         sodipodi:role="line"
         id="tspan3"
         x="322.67523"
         y="431.44998"
         style="font-style:normal;font-variant:normal;font-weight:600;font-stretch:semi-condensed;font-size:26.6667px;font-family:'Roboto SemiCondensed';-inkscape-font-specification:'Roboto SemiCondensed,  Semi-Bold Semi-Condensed';fill:#478061;fill-opacity:1">Choose an operating system to start</tspan></text><use
       x="0"
       y="0"
       xlink:href="#path3"
       id="use4"
       transform="translate(-227.33238)"
       style="opacity:1;fill:#e1edd4;fill-opacity:1;stroke:none;stroke-opacity:1" /><text
       xml:space="preserve"
       style="font-weight:600;font-size:18.6667px;font-family:Inconsolata;-inkscape-font-specification:'Inconsolata Semi-Bold';text-align:start;writing-mode:lr-tb;direction:ltr;text-anchor:start;fill:#478061;fill-opacity:1"
       x="188.98715"
       y="1038.0599"
       id="text8"><tspan
         sodipodi:role="line"
         id="tspan8"
         x="188.98715"
         y="1038.0599"
         style="font-style:normal;font-variant:normal;font-weight:bold;font-stretch:normal;font-size:18.6667px;font-family:'Roboto SemiCondensed';-inkscape-font-specification:'Roboto SemiCondensed,  Bold';fill:#478061;fill-opacity:1">Use the up and down keys to select which entry is highlighted.Press enter to boot the selected OS, 'e' to edit the commands before booting or 'c' for a command-line.</tspan></text><circle
       id="path9"
       style="fill:#abc2ab;stroke:#000000"
       cx="1640.6277"
       cy="870.98431"
       r="0.68943256" /></g><g
     id="g6"
     transform="matrix(0.91488224,0,0,0.91488224,245.07409,12.113273)"
     style="display:inline"><path
       d="M 128.01682,0 C 105.98494,0.04678314 84.523372,7.0072685 66.657757,19.900168 l 23.902685,23.902684 c 11.277448,-6.898594 24.236288,-10.559734 37.456378,-10.582214 39.77241,-7.9e-5 72.01434,32.241846 72.01426,72.014262 -0.0318,13.21538 -3.69956,26.16719 -10.60151,37.43708 l 23.94799,23.94799 c 12.8888,-17.87595 19.8404,-39.34715 19.87417,-61.38507 C 233.25173,47.115274 186.13644,0 128.01682,0 Z"
       fill="#abc2ab"
       id="path1-7" /><path
       d="m 189.37588,190.56963 -23.90269,-23.90268 c -11.27745,6.89859 -24.23629,10.55974 -37.45637,10.58221 -39.772417,8e-5 -72.014343,-32.24185 -72.014264,-72.01426 0.03183,-13.215382 3.699547,-26.167196 10.60151,-37.437081 L 42.656067,43.849832 C 29.76725,61.725769 22.815686,83.196977 22.781918,105.2349 c 0,58.11962 47.115274,105.2349 105.234902,105.2349 22.03188,-0.0468 43.49344,-7.00726 61.35906,-19.90017 z"
       fill="#478061"
       id="path2-7" /><circle
       fill="#abc2ab"
       cx="128"
       cy="105.2349"
       r="33.503357"
       id="circle2" /><path
       d="m 30.591915,124.81039 c -1.147564,0.81968 -2.192665,1.22952 -3.135303,1.22952 h -4.057453 c -0.573782,0 -1.024609,-0.10245 -1.352481,-0.30737 -0.327871,-0.20493 -0.59427,-0.51231 -0.799195,-0.92215 L 0.46842244,86.203138 C 0.38645233,86.121168 0.34546728,86.01871 0.34546728,85.895763 v -0.368865 c 0,-0.409842 0.14344762,-0.737718 0.43034287,-0.983628 C 1.1036817,84.256383 1.615986,84.11294 2.3127229,84.11294 H 27.579567 c 1.35248,0 2.233641,0.409841 2.643482,1.229525 L 43.010172,109.99455 78.85096,85.342465 c 1.188548,-0.819684 2.438574,-1.229525 3.750078,-1.229525 h 3.995963 c 0.532806,0 0.799208,0.225413 0.799208,0.67624 0,0.368856 -0.327871,0.819683 -0.983614,1.35248 z"
       fill="#000000"
       id="path3-6" /><path
       d="m 86.35303,126.03991 c -2.131187,0 -4.016463,-0.32787 -5.65583,-0.98362 -1.639384,-0.69673 -3.012366,-1.63937 -4.118944,-2.82792 -1.106579,-1.18855 -1.946755,-2.58201 -2.520528,-4.18039 -0.573773,-1.63938 -0.860659,-3.40171 -0.860659,-5.287 0,-2.41807 0.409842,-4.79516 1.229525,-7.13126 0.819683,-2.33611 1.946754,-4.56976 3.381213,-6.70095 1.475427,-2.131187 3.196763,-4.098434 5.16401,-5.901741 2.008232,-1.803315 4.180404,-3.360721 6.516517,-4.672216 2.377097,-1.311495 4.877141,-2.336103 7.500131,-3.073825 2.623008,-0.778698 5.307485,-1.168047 8.053425,-1.168047 h 30.12348 c 2.17218,0 4.07795,0.327871 5.71734,0.983614 1.68035,0.655752 3.07381,1.577903 4.18039,2.766451 1.10658,1.147555 1.94676,2.520527 2.52053,4.118918 0.57379,1.59839 0.86069,3.340224 0.86069,5.2255 0,2.418083 -0.43034,4.815666 -1.29101,7.192756 -0.8197,2.33611 -1.96726,4.56976 -3.44269,6.70094 -1.47544,2.13118 -3.21728,4.11893 -5.22551,5.96323 -2.00823,1.80331 -4.2009,3.3812 -6.57799,4.73368 -2.37708,1.3115 -4.87713,2.35661 -7.50013,3.13531 -2.62299,0.73772 -5.26649,1.10657 -7.93048,1.10657 z m 37.00886,-25.1439 c 1.35249,-2.868898 2.02874,-5.020573 2.02874,-6.455023 0,-1.188549 -0.43035,-2.008237 -1.29103,-2.459063 -0.81969,-0.450827 -2.04921,-0.67624 -3.68858,-0.67624 h -8.36081 c -1.18854,0 -2.29512,0.163935 -3.31974,0.491807 -0.98363,0.286895 -1.90577,0.7992 -2.76644,1.536913 -0.86067,0.737722 -1.70084,1.72135 -2.52053,2.950883 -0.77869,1.229526 -1.57788,2.766434 -2.39757,4.610723 l -2.950895,6.70095 c -1.557397,3.48367 -2.336095,6.10667 -2.336095,7.869 0,1.18854 0.348364,2.04921 1.045092,2.582 0.696746,0.49181 1.700862,0.73772 3.012348,0.73772 h 8.42229 c 1.27052,0 2.43858,-0.18443 3.50417,-0.55328 1.0656,-0.40985 2.09021,-1.04511 3.07383,-1.90578 0.98362,-0.86067 1.92626,-2.00823 2.82791,-3.44268 0.90166,-1.43445 1.8238,-3.19678 2.76644,-5.28698 z"
       fill="#000000"
       id="path4" /><path
       d="m 144.12269,126.03991 c -0.73771,0 -1.10657,-0.2459 -1.10657,-0.73771 0,-0.2459 0.0615,-0.55329 0.18444,-0.92215 l 17.27487,-38.668719 c 0.49183,-1.065594 1.27053,-1.59839 2.33613,-1.59839 h 21.14791 c 0.7787,0 1.16805,0.266394 1.16805,0.799182 0,0.24591 -0.082,0.512313 -0.24589,0.799208 L 167.6682,124.38005 c -0.49182,1.10658 -1.27052,1.65986 -2.33612,1.65986 z"
       fill="#000000"
       id="path5" /><path
       d="m 174.34897,126.03991 c -0.73772,0 -1.10657,-0.2459 -1.10657,-0.73771 0,-0.2459 0.0615,-0.55329 0.18443,-0.92215 l 17.27488,-38.668719 c 0.49182,-1.065594 1.27053,-1.59839 2.33612,-1.59839 h 49.42712 c 2.13119,0 4.01646,0.327871 5.65583,0.983614 1.63937,0.655752 3.01234,1.577903 4.11892,2.766451 1.10657,1.147555 1.94676,2.520527 2.52055,4.118918 0.57377,1.59839 0.86066,3.340224 0.86066,5.2255 0,2.500053 -0.43033,4.959116 -1.291,7.377186 -0.86067,2.37709 -2.04922,4.63123 -3.56565,6.76242 -1.47543,2.13118 -3.23775,4.09843 -5.28696,5.90174 -2.00824,1.80331 -4.2009,3.36072 -6.578,4.67221 -2.33611,1.27052 -4.79517,2.27464 -7.37717,3.01235 -2.58203,0.73772 -5.16404,1.10658 -7.74605,1.10658 z m 53.48456,-25.1439 c 1.3115,-2.950868 1.96725,-5.102543 1.96725,-6.455023 0,-1.188549 -0.40984,-2.008237 -1.22952,-2.459063 -0.81969,-0.450827 -2.00824,-0.67624 -3.56565,-0.67624 h -12.47973 l -12.17235,27.479996 h 12.41826 c 1.22953,0 2.37709,-0.18443 3.44269,-0.55328 1.06559,-0.40985 2.06971,-1.0451 3.01234,-1.90578 0.98363,-0.90166 1.92627,-2.04921 2.82792,-3.44268 0.94264,-1.43445 1.88528,-3.19678 2.82791,-5.28698 z"
       fill="#000000"
       id="path6" /></g><path
     id="path7"
     style="fill:#abc2ab;fill-opacity:1"
     d="M 129.76562,13.011719 C 94.232106,14.17533 61.480372,35.665662 46.388672,69.996094 c -3.20073,7.281 -5.605108,15.680966 -7.048828,24.628906 -0.90856,5.63078 -0.891733,22.0728 0.0293,27.99219 3.14605,20.21943 12.06647,38.31862 25.93164,52.61914 10.38387,10.70992 22.076018,18.32925 35.869136,23.375 4.62681,1.69256 13.0557,3.79277 17.84375,4.44726 2.21301,0.3025 4.49496,0.61562 5.07227,0.69532 0.57731,0.0796 5.14315,0.0992 10.14648,0.043 9.5111,-0.1068 13.79148,-0.58691 20.63281,-2.31641 31.03665,-7.84614 55.63591,-30.05094 66.50196,-60.02735 9.00693,-24.84762 7.34403,-52.940472 -4.51367,-76.216792 -1.1764,-2.30923 -2.18474,-4.292137 -2.24024,-4.404297 -0.24187,-0.48867 7.52588,-2.484657 11.52149,-2.960937 2.37402,-0.28299 4.71031,-0.605017 5.1914,-0.716797 l 0.875,-0.205078 -1.2832,-0.660157 c -3.29967,-1.701745 -9.78739,-2.747844 -17.15235,-2.765624 l -3.74023,-0.0098 -2.45117,-3.236328 C 194.53088,33.056407 175.41414,20.516664 154.62695,15.544922 146.31353,13.556573 137.96567,12.743193 129.76562,13.011719 Z m 3.82422,7.597656 c 2.54748,-4.28e-4 5.01135,0.110035 7.31055,0.339844 19.633,1.962351 37.13531,10.032542 51.73828,23.855469 3.2161,3.0443 7.89649,8.388269 7.89649,9.015624 0,0.24214 -0.7084,0.396138 -1.83594,0.398438 -1.01029,0.0021 -6.16701,0.394115 -11.45899,0.871094 -15.84142,1.427821 -18.57079,1.26649 -32.53906,-1.914063 -8.76747,-1.99634 -12.07714,-2.638948 -16.27148,-3.160156 -4.56334,-0.567061 -13.39394,-0.481742 -17.8418,0.171875 -18.82281,2.766024 -31.440521,9.161542 -45.263671,22.945312 -9.77804,9.750181 -17.575303,19.943973 -25.939453,33.914068 -1.78582,2.98274 -3.323769,5.50145 -3.417969,5.59765 -0.37096,0.37889 0.265414,-13.327899 0.771484,-16.619139 3.49653,-22.74 14.566633,-42.181332 32.158203,-56.47461 8.74367,-7.104293 20.702213,-13.164428 31.791016,-16.109375 6.87444,-1.825706 15.25992,-2.830747 22.90234,-2.832031 z m 87.41407,37.111328 -2.27344,0.488281 c -7.11284,1.52447 -11.78967,2.887745 -28.3418,8.265625 -6.4466,2.09453 -12.98005,4.137496 -14.51953,4.541016 -1.53949,0.40351 -4.60926,1.309119 -6.82226,2.011719 -2.21301,0.70261 -5.993,2.268908 -8.39844,3.480468 l -4.37305,2.203126 1.57422,-1.419922 c 3.8695,-3.49115 11.07141,-7.6464 18.10351,-10.44336 11.13602,-4.42925 27.11417,-7.773618 42.77735,-8.955078 z m -13.87696,5.589844 c 0.19131,0 1.61029,2.558467 3.1543,5.685547 6.51432,13.1934 9.22851,24.70676 9.25781,39.275386 0.0218,10.82924 -1.20759,18.63116 -4.47461,28.40821 -10.4696,31.33188 -37.3456,54.07584 -69.63476,58.92773 -5.2708,0.79201 -15.55086,1.11731 -20.41992,0.64649 -19.43009,-1.87879 -37.412234,-10.08359 -51.755864,-23.61719 -3.63186,-3.42676 -8.090315,-8.51232 -10.384765,-11.84375 l -1.248047,-1.81055 0.830078,-2.4375 c 1.19633,-3.51308 2.989167,-6.95439 6.804687,-13.0625 l 3.359375,-5.37695 0.01953,-1.62109 0.01953,-1.62305 -2.009766,-0.10352 c -2.39287,-0.1249 -7.824698,1.56899 -14.386719,4.48633 -2.25784,1.0038 -4.16804,1.76165 -4.24414,1.68555 -0.82208,-0.82208 -4.360835,-13.34474 -4.890625,-17.30664 l -0.238281,-1.79102 2.601562,-3.10742 c 8.88227,-10.60385 23.81406,-22.584363 35.0625,-28.132813 5.37433,-2.65096 8.218599,-3.529181 12.13086,-3.744141 l 3.380865,-0.185547 1.56445,0.757813 c 2.69129,1.30284 4.44336,4.686747 4.44336,8.585937 0,4.806721 -2.27131,9.342091 -9.501957,18.976561 -2.86256,3.81423 -5.528388,7.59791 -5.923828,8.4082 -1.42713,2.92438 -0.19249,4.6626 3.5,4.92969 2.65979,0.19239 5.055537,-0.23006 14.724615,-2.59375 11.94582,-2.92026 14.85485,-3.36498 22.21679,-3.39648 4.63262,-0.0198 7.10141,0.13212 9.33594,0.57422 7.645,1.51253 13.83639,4.47119 22.43555,10.72265 l 2.0332,1.47657 -1.7207,-3.44336 c -5.89483,-11.81163 -5.8883,-15.9496 0.0391,-26.33008 1.16414,-2.03873 3.72148,-7.204911 5.68359,-11.480471 1.96213,-4.27557 4.32118,-8.980508 5.24024,-10.455078 4.4963,-7.21402 12.764,-12.641299 27.86523,-18.292969 2.63081,-0.984589 4.93956,-1.791015 5.13086,-1.791015 z m -73.55859,6.318359 c 1.84081,0.11802 3.79426,0.827203 4.69141,1.908203 0.11189,0.134825 0.16855,0.224908 0.16015,0.267579 -3e-4,0.001 -0.002,0.0049 -0.002,0.0059 -4.7e-4,9.09e-4 -0.003,0.005 -0.004,0.0059 l -0.002,0.002 -0.002,0.002 -0.002,0.002 c -0.0729,0.04856 -0.43173,-0.10402 -1.14648,-0.476563 -1.15092,-0.59986 -1.89292,-0.736857 -3.33594,-0.617187 -3.27105,0.27126 -5.19726,2.344536 -5.19726,5.597656 0,3.16812 2.38928,5.487853 5.73242,5.564453 0.70074,0.01606 1.04852,0.03839 1.09961,0.09375 l 0.002,0.002 0.002,0.002 c 3.7e-4,8.32e-4 0.002,0.005 0.002,0.0059 v 0.002 c 0,8.75e-4 1.1e-4,0.005 0,0.0059 v 0.002 c -3.5e-4,9.19e-4 -0.001,0.0049 -0.002,0.0059 -0.0274,0.04463 -0.18656,0.108693 -0.45703,0.195312 -2.56841,0.82256 -5.85977,-0.576517 -7.27344,-3.091797 -0.85799,-1.5266 -1.05158,-4.460135 -0.38086,-5.765625 0.58044,-1.1298 2.10014,-2.68219 3.17579,-3.24414 0.77049,-0.402525 1.83496,-0.545421 2.93945,-0.47461 z" /><path
     style="fill:#abc2ab"
     d="M -34.236805,260.19972 1628.3024,127.36091 1972.04,-1.3694722 1650.214,161.59772 -38.345221,272.52497 Z"
     id="path8" /></svg>
