<?xml version="1.0" encoding="UTF-8" standalone="no"?>
<!-- Created with Inkscape (http://www.inkscape.org/) -->

<svg
   version="1.1"
   id="svg1"
   width="1920"
   height="1080"
   viewBox="0 0 1920 1080"
   sodipodi:docname="grub6svg.svg"
   inkscape:version="1.4.2 (ebf0e940d0, 2025-05-08)"
   xml:space="preserve"
   inkscape:export-filename="../void6.png"
   inkscape:export-xdpi="96"
   inkscape:export-ydpi="96"
   xmlns:inkscape="http://www.inkscape.org/namespaces/inkscape"
   xmlns:sodipodi="http://sodipodi.sourceforge.net/DTD/sodipodi-0.dtd"
   xmlns="http://www.w3.org/2000/svg"
   xmlns:svg="http://www.w3.org/2000/svg"><defs
     id="defs1" /><sodipodi:namedview
     id="namedview1"
     pagecolor="#ffffff"
     bordercolor="#000000"
     borderopacity="0.25"
     inkscape:showpageshadow="2"
     inkscape:pageopacity="0.0"
     inkscape:pagecheckerboard="0"
     inkscape:deskcolor="#d1d1d1"
     showguides="true"
     inkscape:zoom="1"
     inkscape:cx="621"
     inkscape:cy="460"
     inkscape:window-width="1900"
     inkscape:window-height="1034"
     inkscape:window-x="0"
     inkscape:window-y="0"
     inkscape:window-maximized="0"
     inkscape:current-layer="g1"
     showgrid="false"><sodipodi:guide
       position="309,665"
       orientation="0,-1"
       id="guide5"
       inkscape:locked="false" /><sodipodi:guide
       position="213.10229,1066.9384"
       orientation="0,-1"
       id="guide7"
       inkscape:locked="false" /><inkscape:page
       x="0"
       y="0"
       width="1920"
       height="1080"
       id="page2"
       margin="0"
       bleed="0" /><inkscape:grid
       id="grid3"
       units="px"
       originx="0"
       originy="0"
       spacingx="1"
       spacingy="1"
       empcolor="#0099e5"
       empopacity="0.30196078"
       color="#0099e5"
       opacity="0.14901961"
       empspacing="5"
       enabled="true"
       visible="false" /><sodipodi:guide
       position="456.54641,1134.3194"
       orientation="0,-1"
       id="guide1"
       inkscape:locked="false" /><sodipodi:guide
       position="1029.5419,23.228228"
       orientation="0,-1"
       id="guide2"
       inkscape:locked="false" /><sodipodi:guide
       position="483.05469,646.51562"
       orientation="0,-1"
       id="guide3"
       inkscape:locked="false" /></sodipodi:namedview><g
     inkscape:groupmode="layer"
     inkscape:label="Image"
     id="g1"
     style="display:inline"><rect
       style="display:inline;opacity:1;fill:#f1f7eb;fill-opacity:1;stroke-width:0.991078"
       id="rect1"
       width="1920.1414"
       height="1080.7251"
       x="-0.053701121"
       y="-0.031890053" /><path
       id="rect2"
       style="display:inline;fill:#abc2ab;stroke-width:1.21226"
       d="M 155.75586,1019.3828 H 325.20508 V 992.37891 H 155.75586 Z" /><path
       id="path11"
       style="display:inline;fill:#58a079;stroke-width:1.21226;fill-opacity:1"
       d="M 155.75586 1019.3828 L 155.75586 992.37891 L 123.66406 992.37891 L 123.66406 1019.3828 L 155.75586 1019.3828 z " /><path
       style="display:inline;opacity:0.390817;fill:#b3d392;fill-opacity:1;stroke-width:0.845898"
       d="m 1379.1875,1050.4167 8.4597,-32.9061 21.4533,-4.81 -5.097,44.2528 z"
       id="path10-3" /><path
       style="display:none;opacity:1;fill:#84a092;fill-opacity:1"
       d="M -13.557083,236.28059 1437.0508,114.26684 1696.5721,211.10315 1987.081,-56.165058 1611.3561,-261.45803 -87.152676,-7.7469045 Z"
       id="path1" /><circle
       style="display:none;opacity:1;fill:#58a079;fill-opacity:1;stroke-width:0.635311"
       id="path3"
       cx="274.24802"
       cy="287.0946"
       r="68.733192" /><path
       style="display:inline;opacity:0.390817;fill:#b3d392;fill-opacity:1;stroke-width:0.845898"
       d="m 1017.6216,1050.4787 8.4597,-32.9061 21.4533,-4.81 -5.097,44.2528 z"
       id="path10" /><text
       xml:space="preserve"
       style="font-size:26.6667px;font-family:Carlito;-inkscape-font-specification:Carlito;text-align:start;writing-mode:lr-tb;direction:ltr;text-anchor:start;display:inline;opacity:1;fill:#4d8a69;fill-opacity:1"
       x="314.67523"
       y="431.44998"
       id="text3"><tspan
         sodipodi:role="line"
         id="tspan3"
         x="314.67523"
         y="431.44998"
         style="font-style:normal;font-variant:normal;font-weight:bold;font-stretch:normal;font-size:26.6667px;font-family:'Roboto SemiCondensed';-inkscape-font-specification:'Roboto SemiCondensed,  Bold';fill:#4d8a69;fill-opacity:1">Choose an operating system to start</tspan></text><text
       xml:space="preserve"
       style="font-weight:600;font-size:20px;font-family:Inconsolata;-inkscape-font-specification:'Inconsolata Semi-Bold';text-align:start;writing-mode:lr-tb;direction:ltr;text-anchor:start;fill:#abc2ab;fill-opacity:1"
       x="188.98715"
       y="1038.0599"
       id="text8"><tspan
         sodipodi:role="line"
         id="tspan8"
         x="188.98715"
         y="1038.0599"
         style="font-style:normal;font-variant:normal;font-weight:bold;font-stretch:normal;font-family:'Roboto SemiCondensed';-inkscape-font-specification:'Roboto SemiCondensed,  Bold';fill:#abc2ab;fill-opacity:1">Use the up and down keys to select which entry is highlighted.Press enter to boot the selected OS, 'e' to edit the commands before booting or 'c' for a command-line.</tspan></text><circle
       id="path9"
       style="fill:#abc2ab;stroke:#000000"
       cx="1640.6277"
       cy="870.98431"
       r="0.68943256" /><text
       xml:space="preserve"
       style="font-weight:600;font-size:24px;font-family:'IBM Plex Sans';-inkscape-font-specification:'IBM Plex Sans Semi-Bold';text-align:start;writing-mode:lr-tb;direction:ltr;text-anchor:start;fill:#58a079;fill-opacity:1"
       x="196.73323"
       y="1014.9111"
       id="text1"><tspan
         sodipodi:role="line"
         id="tspan1"
         x="196.73323"
         y="1014.9111"
         style="font-style:normal;font-variant:normal;font-weight:bold;font-stretch:normal;font-size:24px;font-family:Inter;-inkscape-font-specification:'Inter Bold';fill:#58a079;fill-opacity:1">#voidlinux</tspan></text><path
       id="path7"
       style="display:inline;fill:#abc2ab;stroke-width:0.440959;fill-opacity:1"
       d="M 1243.1445 278.56445 L 342.16406 278.56445 C 343.06732 281.09605 343.57237 284.60214 342.49805 289.04883 L 1242.1035 289.04883 A 6.7394695 6.5522623 0 0 1 1239.875 284.18164 A 6.7394695 6.5522623 0 0 1 1243.1445 278.56445 z " /><path
       id="path2"
       style="display:inline;fill:#abc2ab;fill-opacity:1;stroke-width:0.440959"
       d="m 1241.1445,278.56445 a 6.7394695,6.5522623 0 0 0 -3.2695,5.61719 6.7394695,6.5522623 0 0 0 2.2285,4.86719 h 9.0215 a 6.7394695,6.5522623 0 0 0 2.2285,-4.86719 6.7394695,6.5522623 0 0 0 -3.2676,-5.61719 z" /><path
       id="path8"
       style="display:inline;fill:#58a079;stroke-width:0.440959"
       d="M -4.4921875 278.56445 L -4.4921875 289.04883 L 208.67969 289.04883 L 202.73047 278.56445 L -4.4921875 278.56445 z " /></g><g
     id="g6"
     transform="matrix(0.52767087,0,0,0.52767087,206.2687,232.26928)"
     style="display:inline"><path
       d="M 128.01682,0 C 105.98494,0.04678314 84.523372,7.0072685 66.657757,19.900168 l 23.902685,23.902684 c 11.277448,-6.898594 24.236288,-10.559734 37.456378,-10.582214 39.77241,-7.9e-5 72.01434,32.241846 72.01426,72.014262 -0.0318,13.21538 -3.69956,26.16719 -10.60151,37.43708 l 23.94799,23.94799 c 12.8888,-17.87595 19.8404,-39.34715 19.87417,-61.38507 C 233.25173,47.115274 186.13644,0 128.01682,0 Z"
       fill="#abc2ab"
       id="path1-7" /><path
       d="m 189.37588,190.56963 -23.90269,-23.90268 c -11.27745,6.89859 -24.23629,10.55974 -37.45637,10.58221 -39.772417,8e-5 -72.014343,-32.24185 -72.014264,-72.01426 0.03183,-13.215382 3.699547,-26.167196 10.60151,-37.437081 L 42.656067,43.849832 C 29.76725,61.725769 22.815686,83.196977 22.781918,105.2349 c 0,58.11962 47.115274,105.2349 105.234902,105.2349 22.03188,-0.0468 43.49344,-7.00726 61.35906,-19.90017 z"
       fill="#478061"
       id="path2-7" /><circle
       fill="#abc2ab"
       cx="128"
       cy="105.2349"
       r="33.503357"
       id="circle2" /><path
       d="m 30.591915,124.81039 c -1.147564,0.81968 -2.192665,1.22952 -3.135303,1.22952 h -4.057453 c -0.573782,0 -1.024609,-0.10245 -1.352481,-0.30737 -0.327871,-0.20493 -0.59427,-0.51231 -0.799195,-0.92215 L 0.46842244,86.203138 C 0.38645233,86.121168 0.34546728,86.01871 0.34546728,85.895763 v -0.368865 c 0,-0.409842 0.14344762,-0.737718 0.43034287,-0.983628 C 1.1036817,84.256383 1.615986,84.11294 2.3127229,84.11294 H 27.579567 c 1.35248,0 2.233641,0.409841 2.643482,1.229525 L 43.010172,109.99455 78.85096,85.342465 c 1.188548,-0.819684 2.438574,-1.229525 3.750078,-1.229525 h 3.995963 c 0.532806,0 0.799208,0.225413 0.799208,0.67624 0,0.368856 -0.327871,0.819683 -0.983614,1.35248 z"
       fill="#000000"
       id="path3-6" /><path
       d="m 86.35303,126.03991 c -2.131187,0 -4.016463,-0.32787 -5.65583,-0.98362 -1.639384,-0.69673 -3.012366,-1.63937 -4.118944,-2.82792 -1.106579,-1.18855 -1.946755,-2.58201 -2.520528,-4.18039 -0.573773,-1.63938 -0.860659,-3.40171 -0.860659,-5.287 0,-2.41807 0.409842,-4.79516 1.229525,-7.13126 0.819683,-2.33611 1.946754,-4.56976 3.381213,-6.70095 1.475427,-2.131187 3.196763,-4.098434 5.16401,-5.901741 2.008232,-1.803315 4.180404,-3.360721 6.516517,-4.672216 2.377097,-1.311495 4.877141,-2.336103 7.500131,-3.073825 2.623008,-0.778698 5.307485,-1.168047 8.053425,-1.168047 h 30.12348 c 2.17218,0 4.07795,0.327871 5.71734,0.983614 1.68035,0.655752 3.07381,1.577903 4.18039,2.766451 1.10658,1.147555 1.94676,2.520527 2.52053,4.118918 0.57379,1.59839 0.86069,3.340224 0.86069,5.2255 0,2.418083 -0.43034,4.815666 -1.29101,7.192756 -0.8197,2.33611 -1.96726,4.56976 -3.44269,6.70094 -1.47544,2.13118 -3.21728,4.11893 -5.22551,5.96323 -2.00823,1.80331 -4.2009,3.3812 -6.57799,4.73368 -2.37708,1.3115 -4.87713,2.35661 -7.50013,3.13531 -2.62299,0.73772 -5.26649,1.10657 -7.93048,1.10657 z m 37.00886,-25.1439 c 1.35249,-2.868898 2.02874,-5.020573 2.02874,-6.455023 0,-1.188549 -0.43035,-2.008237 -1.29103,-2.459063 -0.81969,-0.450827 -2.04921,-0.67624 -3.68858,-0.67624 h -8.36081 c -1.18854,0 -2.29512,0.163935 -3.31974,0.491807 -0.98363,0.286895 -1.90577,0.7992 -2.76644,1.536913 -0.86067,0.737722 -1.70084,1.72135 -2.52053,2.950883 -0.77869,1.229526 -1.57788,2.766434 -2.39757,4.610723 l -2.950895,6.70095 c -1.557397,3.48367 -2.336095,6.10667 -2.336095,7.869 0,1.18854 0.348364,2.04921 1.045092,2.582 0.696746,0.49181 1.700862,0.73772 3.012348,0.73772 h 8.42229 c 1.27052,0 2.43858,-0.18443 3.50417,-0.55328 1.0656,-0.40985 2.09021,-1.04511 3.07383,-1.90578 0.98362,-0.86067 1.92626,-2.00823 2.82791,-3.44268 0.90166,-1.43445 1.8238,-3.19678 2.76644,-5.28698 z"
       fill="#000000"
       id="path4" /><path
       d="m 144.12269,126.03991 c -0.73771,0 -1.10657,-0.2459 -1.10657,-0.73771 0,-0.2459 0.0615,-0.55329 0.18444,-0.92215 l 17.27487,-38.668719 c 0.49183,-1.065594 1.27053,-1.59839 2.33613,-1.59839 h 21.14791 c 0.7787,0 1.16805,0.266394 1.16805,0.799182 0,0.24591 -0.082,0.512313 -0.24589,0.799208 L 167.6682,124.38005 c -0.49182,1.10658 -1.27052,1.65986 -2.33612,1.65986 z"
       fill="#000000"
       id="path5" /><path
       d="m 174.34897,126.03991 c -0.73772,0 -1.10657,-0.2459 -1.10657,-0.73771 0,-0.2459 0.0615,-0.55329 0.18443,-0.92215 l 17.27488,-38.668719 c 0.49182,-1.065594 1.27053,-1.59839 2.33612,-1.59839 h 49.42712 c 2.13119,0 4.01646,0.327871 5.65583,0.983614 1.63937,0.655752 3.01234,1.577903 4.11892,2.766451 1.10657,1.147555 1.94676,2.520527 2.52055,4.118918 0.57377,1.59839 0.86066,3.340224 0.86066,5.2255 0,2.500053 -0.43033,4.959116 -1.291,7.377186 -0.86067,2.37709 -2.04922,4.63123 -3.56565,6.76242 -1.47543,2.13118 -3.23775,4.09843 -5.28696,5.90174 -2.00824,1.80331 -4.2009,3.36072 -6.578,4.67221 -2.33611,1.27052 -4.79517,2.27464 -7.37717,3.01235 -2.58203,0.73772 -5.16404,1.10658 -7.74605,1.10658 z m 53.48456,-25.1439 c 1.3115,-2.950868 1.96725,-5.102543 1.96725,-6.455023 0,-1.188549 -0.40984,-2.008237 -1.22952,-2.459063 -0.81969,-0.450827 -2.00824,-0.67624 -3.56565,-0.67624 h -12.47973 l -12.17235,27.479996 h 12.41826 c 1.22953,0 2.37709,-0.18443 3.44269,-0.55328 1.06559,-0.40985 2.06971,-1.0451 3.01234,-1.90578 0.98363,-0.90166 1.92627,-2.04921 2.82792,-3.44268 0.94264,-1.43445 1.88528,-3.19678 2.82791,-5.28698 z"
       fill="#000000"
       id="path6" /></g></svg>
